<?xml version="1.0" encoding="utf-8"?>
<!-- Generator: Adobe Illustrator 21.1.0, SVG Export Plug-In . SVG Version: 6.00 Build 0)  -->
<svg version="1.1" id="Layer_1" xmlns="http://www.w3.org/2000/svg" xmlns:xlink="http://www.w3.org/1999/xlink" x="0px" y="0px"
	 viewBox="0 0 161.6 39.8" style="enable-background:new 0 0 161.6 39.8;" xml:space="preserve">
<style type="text/css">
	.st0{fill:#FFFFFF;}
</style>
<g>
	<path class="st0" d="M0,39.8C0,26.5,0,13.4,0,0.3c0.1-0.1,0.1-0.1,0.1-0.1c0,0,0.1,0,0.1,0c23.8,0,47.6,0,71.4,0c0.3,0,0.6,0,0.9,0
		c0.1,0.1,0.1,0.1,0.2,0.1c0,0,0,0.1,0,0.1c0,12.8,0,25.5,0,38.3c0,0.3,0,0.6,0,0.9c-0.1,0.1-0.1,0.1-0.2,0.1c0,0-0.1,0-0.1,0
		c-23.8,0-47.6,0-71.4,0C0.8,39.8,0.4,39.8,0,39.8z M5.1,5.2c0,0.3,0,0.5,0,0.7c0,9.5,0,19,0,28.6c0,0,0,0.1,0,0.1
		c0,0,0.1,0.1,0.1,0.1c20.4,0,40.9,0,61.4,0c0.2,0,0.4,0,0.6,0c0,0,0.1,0,0.1-0.1c0,0,0.1-0.1,0.1-0.1c0-9.8,0-19.5,0-29.3
		C46.6,5.2,25.9,5.2,5.1,5.2z"/>
	<path class="st0" d="M105.7,23.6c-0.6,0-1.1,0-1.7,0c-1.2-1-2-2.5-3.2-3.9c0,1.4,0,2.6,0,3.9c-0.7,0-1.4,0-2,0
		c-0.2-0.8-0.3-5-0.1-7.5c0.6-0.2,1.3,0,2-0.1c1,1.3,2,2.5,3,3.9c0-1.3,0-2.5,0-3.7c0.7-0.3,1.4-0.1,2-0.1
		C105.9,16.9,105.9,21.9,105.7,23.6z"/>
	<path class="st0" d="M123.9,16c0.7,0,1.4,0,2.1,0c0,2.5,0,5,0,7.6c-0.6,0-1.1,0-1.9,0c-0.9-1.1-1.9-2.4-3-3.8
		c-0.2,1.3,0,2.5-0.1,3.7c-0.7,0.2-1.3,0.1-2,0.1c-0.2-0.9-0.2-5.9-0.1-7.6c0.6,0,1.3,0,2,0c0.5,0.6,0.9,1.2,1.4,1.9
		c0.5,0.6,0.9,1.2,1.5,1.9C123.9,18.5,123.7,17.3,123.9,16z"/>
	<path class="st0" d="M120.7,38.8c-0.6,0-1.2,0-1.9,0c-0.9-1.1-1.8-2.3-2.8-3.5c-0.2,1.2,0,2.3-0.1,3.5c-0.7,0.2-1.5,0.1-2.2,0.1
		c-0.2-0.9-0.2-5.8-0.1-7.4c0.7,0,1.4,0,2.2,0c0.8,1.1,1.7,2.2,2.8,3.5c0-1.4,0-2.4,0-3.5c0.7,0,1.4,0,2,0
		C120.8,32.2,120.8,35.4,120.7,38.8z"/>
	<path class="st0" d="M127.2,35.4c0,1.1,0,2.2,0,3.4c-0.7,0-1.4,0-2.1,0c0-2.5,0-4.9,0-7.3c0.7,0,1.3,0,2.1,0
		c0.9,1.1,1.8,2.3,2.9,3.7c0-1.4,0-2.5,0-3.6c0.7-0.3,1.4-0.1,2-0.1c0.2,0.9,0.3,5.5,0.1,7.4c-0.6,0.2-1.3,0.1-2,0.1
		c-0.9-1.2-1.9-2.4-2.8-3.5C127.3,35.3,127.2,35.3,127.2,35.4z"/>
	<path class="st0" d="M146.4,38.8c0-2.6,0-5,0-7.4c0.3,0,0.6-0.1,0.9-0.1c0.9,0,1.8,0.1,2.8,0c1.2-0.1,2.2,0.2,3,1.4
		c0.3,0.7,0.5,1.5,0,2.4c-0.4,0.4-0.8,0.8-1.2,1.2c0.5,0.8,1,1.5,1.5,2.4c-0.9,0.2-1.6,0.1-2.3,0.1c-0.9-0.5-1-1.7-1.9-2.1
		c-0.1,0-0.2,0-0.4,0.1c0,0.6,0,1.3,0,1.9C148,39,147.3,38.7,146.4,38.8z M148.8,34.9c0.8,0.1,1.5,0.1,2.1-0.6
		c-0.1-0.3-0.2-0.6-0.2-0.9c-0.7,0-1.3,0-1.9,0C148.8,33.8,148.8,34.3,148.8,34.9z"/>
	<path class="st0" d="M105.9,8.3c-0.8,0-1.5,0-2.1,0c0-2.5,0-5,0-7.6c1,0,1.9,0,2.8,0c0.9,0,1.7,0.1,2.6,0.2
		c0.5,0.6,0.9,1.1,1.3,1.6c0,0.7,0,1.3,0,2c-0.4,0.4-0.9,0.9-1.4,1.4c0.5,0.7,1.1,1.5,1.7,2.4c-0.8,0.3-1.6,0.1-2.3,0.1
		c-1.1-0.5-1-2.2-2.6-2.4C105.9,6.7,105.9,7.5,105.9,8.3z M105.8,2.6c0.1,0.6-0.1,1.1,0.2,1.6c0.8,0,1.5,0.2,2.2-0.4
		c0-0.7,0-0.7-0.6-1.2C107,2.6,106.5,2.6,105.8,2.6z"/>
	<path class="st0" d="M154.5,8.3c0-2.4,0-4.7,0-7c0-0.2,0-0.4,0-0.7c2.2,0.1,4.3-0.5,6.4,1.3c0.2,0.3,0.5,0.9,0.6,1.2
		c0,0.8-0.2,1.3-0.1,1.8c0.3,1.2-0.4,1.9-1.2,2.6c-0.6,0.6-1.4,0.7-2.2,0.8C157,8.4,155.8,8.3,154.5,8.3z M156.8,6.3
		c1,0.3,1.7-0.2,2.5-0.7c0.1-0.4,0.2-0.9,0.4-1.3c-0.2-0.4-0.4-0.8-0.6-1.2c-0.7-0.2-1.3-0.8-2.2-0.3C156.8,3.9,156.8,5.1,156.8,6.3
		z"/>
	<path class="st0" d="M150.9,0.7c0,0.6,0,1.2,0,1.8c-1.3,0-2.5,0-3.7,0c0,0.3,0,0.6,0,0.9c1.1,0.3,2.2,0,3.4,0.2
		c0.2,0.6,0.1,1.2,0.1,1.8c-1.1,0-2.3,0-3.4,0c-0.1,0.3-0.1,0.6-0.1,0.9c1.3,0.3,2.7,0,4,0.2c0,0.6,0,1.2,0,1.8c-2,0-4,0-6,0
		c-0.2-0.8-0.3-4.9-0.1-7.5C145.8,0.6,148.8,0.5,150.9,0.7z"/>
	<path class="st0" d="M96.3,5.5c0,0.3,0,0.5,0,0.8c1.3,0,2.6,0,3.9,0c0.2,0.6,0.1,1.2,0.1,1.9c-2.1,0-4.1,0-6.1,0c0-2.6,0-5,0-7.6
		C95,0.5,96,0.7,97,0.6c1,0,1.9,0,3,0c0,0.3,0.1,0.6,0.1,0.9c0,0.3,0,0.6,0,0.9c-1.3,0-2.5,0-3.8,0c0,0.4,0,0.6,0,1
		c1.1,0,2.2,0,3.4,0c0.3,0.6,0.1,1.2,0.2,1.8C98.6,5.6,97.4,5.2,96.3,5.5z"/>
	<path class="st0" d="M138.8,34.2c1,0,2.1,0,3.1,0c0.3,0.5,0.1,1,0.1,1.7c-1.2,0-2.3,0-3.6,0c0,0.4,0.1,0.8,0.1,1.2
		c1.3,0,2.6,0,3.8,0c0.3,0.6,0.2,1.1,0.2,1.6c-0.8,0.2-4,0.3-6.1,0.1c-0.2-0.8-0.3-5-0.1-7.2c0.8-0.2,4.3-0.3,6.1-0.1
		c0,0.2,0.1,0.5,0.1,0.8c0,0.2,0,0.5,0,0.8c-1.3,0-2.5,0-3.6,0C138.4,33.4,138.4,33.7,138.8,34.2z"/>
	<path class="st0" d="M108.4,38.8c-0.2-0.4-0.4-0.8-0.7-1.1c-0.9,0-1.8,0-2.7,0c-0.1,0.3-0.3,0.7-0.5,1.1c-0.8,0-1.5,0.1-2.3-0.1
		c1.1-2.6,2.2-5.1,3.2-7.5c0.7,0,1.3,0,2,0c1,2.4,2.1,4.9,3.2,7.5C109.9,38.9,109.1,38.8,108.4,38.8z M105.8,35.7
		c0.5,0,0.8,0,1.1-0.1c-0.2-0.6-0.4-1-0.6-1.8C106.1,34.6,106,35,105.8,35.7z"/>
	<path class="st0" d="M149.7,22.3c-0.9,0-1.7,0-2.5,0c-0.2,0.5-0.5,0.9-0.7,1.4c-0.7,0-1.4,0-2.2,0c0.3-1.4,1-2.5,1.5-3.8
		c0.5-1.3,1.1-2.5,1.7-3.8c0.6,0,1.3,0,1.9,0c0.7,0.8,3.1,6.5,3.2,7.6c-0.7,0-1.3,0-2.1,0C150.2,23.2,150,22.8,149.7,22.3z
		 M148.5,18.8c-0.3,0.7-0.4,1.2-0.6,1.8c0.5,0,0.9,0,1.4,0C149,20,148.8,19.5,148.5,18.8z"/>
	<path class="st0" d="M111.2,16c0.7,0,1.4,0,2.1,0c1.1,2.5,2.2,4.9,3.1,7.5c-0.8,0.2-1.5,0.1-2.2,0.1c-0.2-0.4-0.4-0.9-0.7-1.4
		c-0.8,0-1.6,0-2.6,0c-0.2,0.4-0.5,0.8-0.8,1.3c-0.7,0-1.4,0-2.2,0C109.1,21.1,110.1,18.5,111.2,16z M111.5,20.5c0.6,0,1,0,1.4,0
		c-0.2-0.6-0.5-1.1-0.7-1.7C112,19.4,111.8,19.9,111.5,20.5z"/>
	<path class="st0" d="M83.8,31.4c1.5,0,2.9,0,4.1,0c2,0.5,2.3,1.8,2,3.4c-0.1,1.1-1,1.4-2.1,1.9c-0.5,0-1.2,0-2,0c0,0.7,0,1.3,0,2
		c-0.7,0.3-1.4,0.1-2,0.1C83.7,37.9,83.6,33.3,83.8,31.4z M87.8,33.6c-0.6-0.5-1.1-0.7-1.8-0.4c0,0.6-0.1,1.2,0.1,1.7
		c0.7,0.1,1.2,0.1,1.8-0.4C87.8,34.3,87.8,34,87.8,33.6z"/>
	<path class="st0" d="M136,22c-0.8,1.4-2,1.8-3.4,1.9c-1.7-0.3-3.2-1-3.8-3c0-0.7,0-1.5,0-2.2c0.5-1.3,1.3-2.2,2.7-2.7
		c1,0,2.1-0.2,3.2,0.4c0.4,0.4,0.8,0.7,1.2,1.1c-0.5,0.4-0.9,0.8-1.4,1.2c-0.7-0.3-1.3-1.1-2.2-0.7c-0.4,0.2-0.8,0.4-1,0.8
		c-0.6,0.9-0.4,2.3,0.8,3c1.1,0.1,1.1,0.1,2.4-0.7C135,21.3,135.5,21.7,136,22z"/>
	<path class="st0" d="M89.1,5.6c0.5,0.4,1,0.7,1.5,1.1c-0.8,1.3-2,1.8-3.3,1.9c-1.8-0.3-3.2-1-3.8-3c-0.4-2.9,0.6-4.1,2.7-4.9
		c0.5,0,1.1,0,1.6,0c1.2-0.1,2,0.5,2.7,1.5c-0.4,0.4-0.9,0.8-1.3,1.2c-0.7-0.4-1.3-1-2.1-0.8C86.7,2.7,86.3,3,86,3.3
		c-0.6,0.8-0.6,2.2,0.7,3C87.7,6.7,88.4,6.1,89.1,5.6z"/>
	<path class="st0" d="M135.1,3.7c0,0.8,0,1.3,0,2c-1.2,0-2.3,0-3.5,0c0,0.9,0,1.7,0,2.5c-0.7,0.3-1.4,0.1-2,0.1
		c-0.2-0.9-0.3-5.5-0.1-7.5c0.8-0.2,4.3-0.2,6.1-0.1c0,0.3,0.1,0.6,0.1,0.9c0,0.3,0,0.5,0,0.9c-1.4,0-2.7,0-4,0c0,0.4,0,0.7,0,1.2
		C132.7,3.7,133.8,3.7,135.1,3.7z"/>
	<path class="st0" d="M89.4,19.1c0,0.8,0,1.3,0,1.9c-1.2,0-2.3,0-3.4,0c-0.3,0.9,0,1.7-0.2,2.6c-0.6,0.2-1.3,0.1-1.9,0.1
		c-0.2-0.9-0.3-6-0.1-7.5c0.9-0.2,4.4-0.2,5.9-0.1c0,0.6,0,1.1,0,1.8c-1.2,0-2.5,0-3.7,0c0,0.4,0,0.7,0,1.2
		C87.1,19.1,88.2,19.1,89.4,19.1z"/>
	<path class="st0" d="M113.3,2.5c0-0.6,0-1.2,0-1.7c0.8-0.2,4.2-0.3,6.6-0.1c0,0.3,0.1,0.6,0.1,0.9c0,0.3,0,0.5,0,0.9
		c-0.7,0-1.4,0-2.1,0c0,1.9,0,3.8,0,5.6c-0.8,0.3-1.5,0.1-2.4,0.2c0-1,0-2,0-2.9c0-0.9,0-1.8,0-2.8C114.7,2.6,114,2.6,113.3,2.5z"/>
	<path class="st0" d="M155.8,23.6c0-2.5,0-5,0-7.5c0.7,0,1.4,0,2.1,0c0,1.9,0,3.7,0,5.6c1.2,0,2.3,0,3.6,0c0,0.7,0,1.3,0,1.8
		C160.5,23.7,157.1,23.7,155.8,23.6z"/>
	<path class="st0" d="M93.6,38.8c0-2.6,0-5,0-7.4c0.7,0,1.3,0,2,0c0.3,0.9,0.1,1.8,0.1,2.7c0,0.9,0,1.8,0,2.8c1.2,0,2.3,0,3.5,0
		c0,0.7,0,1.3,0,2C97.4,38.8,95.5,38.8,93.6,38.8z"/>
	<path class="st0" d="M139.2,16c0.7,0,1.3,0,1.9,0c0.2,0.9,0.2,5.9,0.1,7.6c-0.6,0.2-1.3,0.1-1.9,0C139.1,22.7,139.1,17.8,139.2,16z
		"/>
	<path class="st0" d="M92.9,16c0.7,0,1.3,0,1.9,0c0.2,0.9,0.3,5.8,0.1,7.6c-0.6,0.2-1.3,0-1.9,0.1C92.8,22.7,92.8,17.9,92.9,16z"/>
	<path class="st0" d="M125.4,8.3c-0.7,0-1.3,0-1.9,0c-0.2-0.9-0.2-5.8-0.1-7.6c0.6-0.2,1.3-0.1,1.9,0C125.5,1.6,125.6,6.6,125.4,8.3
		z"/>
	<path class="st0" d="M141,8.3c-0.7,0-1.3,0-1.9,0c-0.2-0.9-0.2-5.8-0.1-7.6c0.6-0.2,1.3,0,1.9-0.1C141.1,1.6,141.2,6.5,141,8.3z"/>
	<path class="st0" d="M159.6,33.6c-0.2-0.2-0.3-0.3-0.5-0.5c0,0.4-0.1,0.7-0.1,1.1c-0.2,0-0.4,0-0.6,0c0-0.9,0-1.7,0-2.5
		c0.7,0,0.7,0,1.2,0.8c0.3-0.3,0.6-0.6,0.9-0.9c0.9,0.8,0.3,1.7,0.5,2.6c-0.2,0-0.4,0-0.7,0.1c0-0.5-0.1-0.9-0.1-1.3
		C160,33.1,159.9,33.3,159.6,33.6z"/>
	<path class="st0" d="M77.6,1.1c-0.1,0.4-0.2,0.8-0.2,1.3c-0.4-0.7-0.4-0.7-0.3-2.2c0.2-0.1,0.3-0.2,0.5-0.2
		c0.2,0.2,0.3,0.4,0.6,0.7c0.2-0.2,0.4-0.3,0.5-0.5c0.2,0,0.4,0,0.6,0c0.3,0.7,0.1,1.3,0.1,2.1c-0.2,0-0.4,0.1-0.6,0.1
		c-0.1-0.3-0.1-0.6-0.2-0.9c-0.2,0.1-0.3,0.2-0.5,0.3C78,1.6,77.8,1.4,77.6,1.1z"/>
	<path class="st0" d="M157,32.4c-0.1,0.6,0.1,1.2-0.2,1.8c-0.3-0.6-0.3-0.6-0.4-1.8c-0.2-0.1-0.4-0.2-0.6-0.3c0-0.1,0-0.3,0-0.5
		c0.6-0.3,1.2-0.1,1.8-0.1c0.1,0.1,0.3,0.3,0.5,0.5C157.6,32.3,157.3,32.4,157,32.4z"/>
	<path class="st0" d="M75.5,2.3c-0.3,0-0.4-0.1-0.7-0.1c0-0.6,0-1.1,0-1.6c-0.3-0.2-0.5-0.3-0.9-0.5c0.9,0,1.5,0,2.2,0
		c0,0.1,0,0.1,0,0.2c-0.2,0.1-0.3,0.1-0.6,0.2C75.6,1.1,75.6,1.6,75.5,2.3z"/>
	<path class="st0" d="M53.9,24.2c0,1.6,0,3,0,4.5c0,0.1-0.1,0.2-0.3,0.3c-1.8,0-3.6,0-5.5,0c0,0-0.1-0.1-0.1-0.1
		c0,0-0.1-0.1-0.1-0.1c0-0.2,0-0.5,0-0.7c0-5.6,0-11.1,0-16.7c0.4,0,0.7-0.1,1-0.1c2.6,0,5.2,0,7.8,0c1.6,0,3.1,0.4,4.4,1.2
		c1.3,0.8,2.2,2,2.5,3.6c0.2,1.1,0.2,2.1,0,3.2c-0.6,2.4-2.2,3.8-4.4,4.5c-1.3,0.4-2.7,0.6-4.1,0.5C54.7,24.1,54.4,24.2,53.9,24.2z
		 M54,19.8c0.6,0,1.1,0,1.6,0c1,0,1.9-0.3,2.1-1.4c0-0.5,0-0.9,0-1.3c-1-1.5-2.4-1.1-3.8-1C54,17.3,54,18.5,54,19.8z"/>
	<path class="st0" d="M20.6,21.7c1.6,0.9,3.2,1.8,4.7,2.7c-1.7,3.7-5.4,5.4-9.9,4.8c-4.6-0.7-7.2-4.1-7.5-8.4
		c-0.2-2.7,0.6-5.1,2.4-7.1c1.9-2,4.3-2.7,6.9-2.9c0.5,0.1,1.1,0.1,1.6,0.2c1.4,0.2,2.7,0.6,3.7,1.4c1,0.8,2,1.7,2.6,3
		c-1.4,1.2-3.2,1.8-4.7,2.9c-0.6-0.7-1.1-1.2-1.6-1.8c-0.8-0.1-1.7-0.2-2.3-0.3c-1.5,0.6-2.2,1.6-2.5,2.9c-0.5,1.9,0.6,4.1,2.5,4.6
		c1.1,0.4,2.1,0,3-0.8C19.9,22.7,20.2,22.2,20.6,21.7z"/>
	<path class="st0" d="M43.9,11.3c0,1.7,0,3.2,0,4.9c-1.5,0.2-3,0-4.4,0.1c-1.4,0-2.9,0-4.3,0c0,0.7,0,1.3,0,2.1
		c0.8,0.2,1.7,0.1,2.6,0.1c0.9,0,1.8,0,2.8,0c0.9,0,1.7,0,2.7,0c0,0.9,0,1.6,0,2.4c0,0.8,0,1.5,0,2.4c-2.7,0-5.4,0-8.1,0
		c0,1.9,0,3.8,0,5.6c-1,0.2-2,0.1-2.9,0.1c-0.9,0-1.8,0-2.7,0c-0.2-0.9-0.3-15.5-0.1-17.6C30.2,11.1,41.9,11.1,43.9,11.3z"/>
</g>
<g>
</g>
<g>
</g>
<g>
</g>
<g>
</g>
<g>
</g>
<g>
</g>
</svg>
