<svg version="1.1" id="Layer_1" xmlns="http://www.w3.org/2000/svg" xmlns:xlink="http://www.w3.org/1999/xlink" x="0px" y="0px"
	 viewBox="0 0 364.2 327" style="enable-background:new 0 0 364.2 327;" xml:space="preserve">
<style type="text/css">
	.st0{fill:#FFFFFF;}
	.st1{fill:#DEDBC4;}
	.st2{fill:#001689;}
	.st3{fill:#FFB819;}
</style>
<polygon class="st0" points="363.9,0.5 -0.3,0.5 -0.3,292.2 181.8,327.5 363.9,292.2 "/>
<g>
	<polygon class="st1" points="351.8,0.5 351.8,282.7 181.8,315.7 11.7,282.7 11.7,0.5 7.7,0.5 7.7,286 181.4,319.7 181.8,319.8 
		355.8,286 355.8,0.5 	"/>
	<polygon class="st1" points="347.4,0.5 347.4,279.1 181.8,311.2 16.2,279.1 16.2,0.5 15.2,0.5 15.2,279.9 181.8,312.3 348,280 
		348.4,279.9 348.4,0.5 	"/>
</g>
<g>
	<g>
		<path class="st2" d="M71.2,167.1c0.4,0.3,0.8,0.5,1.1,0.5c0.8,0,1.3-1.1,1.5-3.4h1.3c-0.2,2.9-0.2,6.9-0.2,13.8h-1.3
			c-0.6-5.2-1.3-8-4.3-10.3c-1.9-1.8-4.5-2.8-7.2-2.8c-8.2,0-11.4,9.6-11.4,19.7c0,10.2,3.4,19.5,11.6,19.5c2.5,0,5.3-0.9,7.1-2.8
			c3-2.3,3.7-5.5,4.2-11h1.3c0,7.2,0.1,11.3,0.2,14.4h-1.3c-0.2-2.3-0.6-3.4-1.4-3.4c-0.3,0-0.7,0.2-1.2,0.5
			c-2.8,2-5.6,3.7-10.5,3.7c-12.1,0-20.2-7.6-20.2-20.7c0-12.8,8.3-21.4,20.2-21.4C65.7,163.4,68.6,165.1,71.2,167.1z"/>
		<path class="st2" d="M118.9,202.1c-2,2.3-4.2,3.3-7.6,3.3c-4.1,0-6.9-1.4-7.7-6.2l-1-5.7c-0.8-4.8-1.8-8.1-5.3-8.1h-3.7v13.1
			c0,4.2,0.7,4.7,4.3,4.9v1.1c-2.1-0.1-5.5-0.2-8.6-0.2c-3.7,0-7.1,0.1-9,0.2v-1.1c3.6-0.2,4.3-0.8,4.3-4.9v-28.3
			c0-4.2-0.7-4.7-4.3-4.9v-1.1c1.9,0.1,5.5,0.2,8.7,0.2c3.7,0,7.5-0.1,9-0.1c10.6,0,15.8,3.7,15.8,9.9c0,4.6-2.8,9.9-12.8,11h0
			c6.9,0.6,10,2.8,11,7.5l1.3,5.9c0.6,3,1.3,4.1,2.7,4.1c1,0,1.6-0.4,2.3-1.3L118.9,202.1z M93.6,170.2v14H96c6.7,0,8.2-4.2,8.2-9.5
			c0-6-1.9-9.5-7.1-9.5C94.2,165.3,93.6,166.3,93.6,170.2z"/>
		<path class="st2" d="M160.6,184c0,12.8-8.4,21.4-20.2,21.4c-12.1,0-20.2-7.6-20.2-20.7c0-12.8,8.3-21.4,20.2-21.4
			C152.6,163.4,160.6,171,160.6,184z M129.7,184.5c0,12.2,4.9,19.9,10.9,19.9c6.4,0,10.5-8.3,10.5-20.1c0-12.2-4.9-19.9-10.9-19.9
			C133.8,164.4,129.7,172.7,129.7,184.5z"/>
		<path class="st2" d="M217.6,164.2v1.1c-1.6,0.6-3.7,2.5-5,6.8l-10.1,32.6c-0.6,0-1.3-0.1-2-0.1c-0.7,0-1.3,0-2,0.1l-8.4-25.4
			l-8.5,25.4c-0.6,0-1.3-0.1-2-0.1c-0.7,0-1.3,0-1.9,0.1L165,169c-1-2.8-2.5-3.6-3.6-3.7v-1.1c2.3,0.1,5.6,0.2,8.5,0.2
			c3,0,5.5-0.1,7-0.2v1.1c-1.5,0.2-2,1-2,2.2c0,0.8,0.2,1.6,0.5,2.6l8.3,24.1l5.8-17l-3-8.9c-0.8-2.4-1.9-3-3.1-3.1v-1.1
			c2.1,0.1,5.2,0.2,8.1,0.2c3.3,0,6.4-0.1,8.2-0.2v1.1c-2.6,0.1-3.9,0.4-3.9,2.1c0,0.7,0.2,1.5,0.6,2.7l7.8,23.9l5.4-17.3
			c0.9-2.8,1.3-5,1.3-6.6c0-3.4-1.8-4.7-4.9-4.8v-1.1c2.6,0.1,4.7,0.2,7.1,0.2C215,164.3,216.5,164.3,217.6,164.2z"/>
		<path class="st2" d="M237.2,165.3c-3.9,0.2-4.6,0.8-4.6,4.9v29c0,3.6,0.6,4.1,3.6,4.1h2.8c5.3,0,9.3-5.1,10.4-12.7h1.3
			c-0.1,1.3-0.2,3.1-0.2,5c0,1.8,0.1,5.5,0.4,9c-3.9-0.2-9.2-0.2-13.1-0.2c-3.8,0-12.4,0-18.6,0.2v-1.1c3.6-0.2,4.3-0.8,4.3-4.9
			v-28.3c0-4.2-0.7-4.7-4.3-4.9v-1.1c1.9,0.1,5.4,0.2,9,0.2c3.3,0,6.9-0.1,9-0.2V165.3z"/>
		<path class="st2" d="M285.8,204.6c-3.9-0.2-9.2-0.2-13.1-0.2c-3.8,0-12.4,0-18.6,0.2v-1.1c3.6-0.2,4.3-0.8,4.3-4.9v-28.3
			c0-4.2-0.7-4.7-4.3-4.9v-1.1c6.2,0.2,14.8,0.2,18.6,0.2c3.5,0,8.4,0,11.9-0.2c-0.3,3.4-0.4,6.8-0.4,8.4c0,1.5,0.1,3,0.2,3.9h-1.3
			c-1.1-8.4-4.1-11-9.4-11h-2.3c-3.3,0-3.9,0.5-3.9,4.1v14.1h1.8c4.6,0,6.2-4.4,6.8-7.5h1.3c-0.2,2.4-0.2,4.1-0.2,5.4
			c0,1.1,0,1.9,0,2.7c0,1.9,0.1,3.8,0.3,8.1h-1.3c-0.6-4-2.4-7.6-7-7.6h-1.8v14.4c0,3.6,0.6,4.1,3.9,4.1h2.8c5.1,0,8.6-3,10-12.2
			h1.3c-0.1,1.2-0.2,2.9-0.2,4.8C285.4,197.6,285.5,201.2,285.8,204.6z"/>
		<path class="st2" d="M323.1,164.1v1.1c-1.6,0.6-3.4,2.5-5.5,6.6l-6.7,13.4v13.3c0,4.2,0.7,4.7,4.3,4.9v1.1c-2-0.1-5.6-0.2-8.8-0.2
			c-3.5,0-7,0.1-8.9,0.2v-1.1c3.7-0.2,4.3-0.8,4.3-4.9v-9.7l-11-20.3c-1.4-2.5-2.5-3.2-3.3-3.2v-1.2c2,0.2,4.1,0.3,6.7,0.3
			c3.3,0,7.5-0.1,10.7-0.3v1.2c-2.3,0-4.3,0.2-4.3,1.7c0,0.3,0.1,0.8,0.4,1.3l8.7,16.7l4.4-8.9c1.6-3.1,2.3-5.4,2.3-7
			c0-2.7-1.9-3.7-4.8-3.8v-1.1c2.6,0.1,4.7,0.2,7.1,0.2C320.4,164.3,322,164.2,323.1,164.1z"/>
	</g>
	<g>
		<path class="st2" d="M74.8,222.3H76l3.1,12l3.9-12h1.4l4.1,12l3.1-12h1.1l-3.4,13.2h-1.7l-3.9-12.1l-3.9,12.1h-1.7L74.8,222.3z"/>
		<path class="st2" d="M94.8,235.5v-13.2h7.9v1.1H96v4.7h6.5v1.1H96v5.1h7v1.1H94.8z"/>
		<path class="st2" d="M104.3,235.5l5.3-13.2h1.4l5.3,13.2H115l-1.4-3.6H107l-1.4,3.6H104.3z M107.4,230.8h5.8l-2.9-7.4L107.4,230.8
			z"/>
		<path class="st2" d="M118.2,222.3h1.2v12.1h6.6v1.1h-7.8V222.3z"/>
		<path class="st2" d="M126.9,222.3h9.8v1.1h-4.3v12.1h-1.2v-12.1h-4.3V222.3z"/>
		<path class="st2" d="M138.6,222.3h1.2v5.8h7.3v-5.8h1.2v13.2h-1.2v-6.3h-7.3v6.3h-1.2V222.3z"/>
		<path class="st2" d="M157,222.3h1.9l5,11.4l5.1-11.4h1.8v13.2h-1.2v-12.3l-5.1,12.3h-1.2l-5.1-12.2v12.2H157V222.3z"/>
		<path class="st2" d="M172.6,235.5l5.3-13.2h1.4l5.3,13.2h-1.3l-1.4-3.6h-6.7l-1.4,3.6H172.6z M175.7,230.8h5.8l-2.9-7.4
			L175.7,230.8z"/>
		<path class="st2" d="M186.4,222.3h1.4l7.4,11.6v-11.6h1.2v13.2h-1.5l-7.2-11.4v11.4h-1.2V222.3z"/>
		<path class="st2" d="M198.1,235.5l5.3-13.2h1.4l5.3,13.2h-1.3l-1.4-3.6h-6.7l-1.4,3.6H198.1z M201.1,230.8h5.8l-2.9-7.4
			L201.1,230.8z"/>
		<path class="st2" d="M217.3,229.8v-1.1h4.4v6.2c-1.4,0.5-3,0.8-4.7,0.8c-1.8,0-3.3-0.6-4.3-1.9c-1-1.3-1.5-2.9-1.5-5
			c0-2,0.5-3.6,1.5-4.9c1-1.3,2.4-2,4.1-2c1.3,0,2.4,0.4,3.3,1.1c0.9,0.7,1.3,1.5,1.4,2.5h-1.4c-0.1-0.7-0.4-1.2-1-1.7
			c-0.6-0.5-1.4-0.8-2.3-0.8c-1.4,0-2.5,0.6-3.3,1.7c-0.7,1.1-1.1,2.5-1.1,4.1c0,1.9,0.4,3.3,1.3,4.3c0.9,1,2.1,1.5,3.6,1.5
			c0.8,0,1.8-0.2,3-0.5v-4.3H217.3z"/>
		<path class="st2" d="M225.3,235.5v-13.2h7.9v1.1h-6.7v4.7h6.5v1.1h-6.5v5.1h7v1.1H225.3z"/>
		<path class="st2" d="M236.4,222.3h1.9l5,11.4l5.1-11.4h1.8v13.2H249v-12.3l-5.1,12.3h-1.2l-5.1-12.2v12.2h-1.2V222.3z"/>
		<path class="st2" d="M253.8,235.5v-13.2h7.9v1.1H255v4.7h6.5v1.1H255v5.1h7v1.1H253.8z"/>
		<path class="st2" d="M264.8,222.3h1.4l7.4,11.6v-11.6h1.2v13.2h-1.5L266,224v11.4h-1.2V222.3z"/>
		<path class="st2" d="M276.6,222.3h9.8v1.1h-4.3v12.1h-1.2v-12.1h-4.3V222.3z"/>
	</g>
	<path class="st2" d="M282.1,143.9l-14.2-0.1c-1.9-3.6-6.4-4.2-8.7-7.2c-1.9-2.4-4.5-4-7.8-3.5c-1.7,0.3-2.9-0.6-3.6-1.8
		c-2-3.5-5.3-5.7-8.2-8.4c-2.9-2.6-5.5-3.9-9.2-3.5c-2.1,0.2-4.1,0-6.2,0c-4.2,0.1-8.1-1.6-11.9-2.8c-2.6-0.8-4.5-4.1-6.7-6.4
		c-0.2-0.2,0-0.9-0.2-1.1c-1.5-1.1-3-2.2-5.1-2.2c-1.9,0-2.7,0.9-3.6,2.5c-1.6,2.8-3.5,5.5-7.5,5c-0.3,0-1,0.6-1.1,1
		c-0.5,2.8-2.8,2.2-4.7,2.8c-2.2,0.8-3.3,0.2-4.8-1.4c-1.3-1.5-2.9-2.9-4.7-3.6c-1.2-0.5-2.3-0.3-2.2-2c0-0.4-0.8-0.9-1.2-1.3
		c-3.5-4-7.8-7.1-10.7-11.7c-1-1.5-4.1-1.8-6.3-2.5c-1.9-0.6-3,0.8-4.1,2c-3.2,3.4-7.1,5.5-11.5,6.7c-0.9,0.3-2,0.6-2.6,1.2
		c-2.3,2.8-5.8,4.5-7.2,8.2c-0.3,0.8-1.9,1.2-2.9,1.7c-1.4,0.7-2.9,1.1-4.2,1.9c-2.4,1.3-5.2,2.2-5.1,5.9c0,0.7-1.1,1.7-1.9,2.2
		c-2.5,1.4-5.1,3.2-7.8,3.6c-2.6,0.4-4,1.8-5.1,3.7c-1.8,3-3.4,6-5,9.1c-0.2,0.3-1,1.3-1.4,1.9L79,143.9c-0.6,0-1.1-0.4-1.1,0.2
		c0,0.6,0.5,0.2,1.1,0.2l101.6,0.9l101.6-0.9c0.6,0,1.1,0.4,1.1-0.2C283.3,143.5,282.8,143.9,282.1,143.9z M101,143.7
		c0.8-0.6,1.7-1.5,2.5-2c3.4-2,6.7-3.9,6.3-8.7c-0.1-0.7,1-1.7,1.7-2.3c1-0.9,2.3-1.5,3.4-2.2c1-0.7,2-0.8,2.3,0.6
		c0.5,2.7,2.9,4.2,4.1,6.4c1.3,2.3,1.5,5.1,2.1,7.8c0,0,0,0.2,0.1,0.4L101,143.7z M161.7,128.8c-0.5,2-5.6,2.4-7.5,0.6
		c-2-1.8-3.8-3.8-5.7-5.7c-0.3-0.3-0.6-0.4-0.9-0.6c-0.2,0.3-0.4,0.7-0.5,1c-0.3,3,0.2,5.9-1,8.9c-0.7,1.7-0.6,3.9-2.4,5.3
		c-0.3,0.3-0.3,1.1-0.3,1.7c0,0.6,0.4,1.1,0.6,1.6c0.3-0.3,0.7-0.5,0.9-0.8c1.5-2.9,3.9-5.4,3.6-9.1c-0.1-0.7,0-1.7,0.5-2.2
		c0.4-0.5,0.9-2.3,2.1-0.7c2.5,3.3,5.2,6.5,7.2,10.1c1,1.7,0.5,3.3-0.8,4.3l-30,0.3c-0.3-3-0.8-5.9-2.5-8.6c-0.7-1.1,0.5-2.5,1-3.8
		c1.3-3.7,4.1-7.3,2.1-11.7c-0.2-0.4,0.1-1.3,0.5-1.7c3-3.1,6.1-6.2,9.2-9.2c0.8-0.8,1.9-1.3,3-1.8c3.8-1.6,7.4-3.5,10.3-6.6
		c0.4-0.4,1.4-0.2,2.1-0.3c-0.1,0.7,0.1,1.5-0.2,2.1c-1.1,2.1-2,4.1-2.1,6.7c0,1.1-1.8,2.6-1,3.7c0.8,1.1,2.5,1.5,3.9,2.1
		c1,0.5,2.3,0.6,3.2,1.3c1.3,1,3.4,0.2,4.1,2.6C161.8,121.8,162.5,125.3,161.7,128.8z M171.6,127.7c-0.3-0.1-0.7-0.1-0.9-0.3
		c-1.5-1.4-2.8-3-4.4-4.3c-1.2-1,1.8-2.5-0.5-3.1c-2.7-5-7.6-6.7-12.5-8.2c-0.5-0.2-0.9-1-1.2-1.6c-0.1-0.1,0.4-0.6,0.8-1
		c0.5,0.2,1,0.4,1.5,0.6c3.5,1.5,6.9,3.2,10.5,4.4c1.7,0.5,2.4,1.4,3.4,2.7c2.2,3,1.7,6.7,3.6,9.7
		C172,126.8,171.7,127.3,171.6,127.7z M196.8,142.6c0,0.2-0.1,0.3-0.1,0.5l-3.8,0c-3.4-3.9-6.6-7.9-7.2-13.4c-0.2-1.7,0.7-2,2.2-1.3
		c1,0.5,2.2,0.8,3.3,0.9c4,0.4,5.6,2,5.6,6c0,1,0,2,0,3.1C196.8,139.8,196.8,141.2,196.8,142.6z M227.9,141.4c0,0.8,0,1.5-0.2,2
		l-15.6-0.1c-0.2-0.8-0.1-1.8-0.4-2.6c-0.4-1-1.2-2-2.1-2.7c-1.4-1-3-1.9-4.6-2.3c-1.4-0.4-2.2-0.7-2-2.3c0.3-2.3-0.6-3.7-3.1-4.3
		c-1.6-0.4-2.9-2-4.4-2.9c-0.5-0.3-1.5-0.7-1.5-0.6c-1.4,1.9-3,0.3-3.9-0.2c-1.6-0.8-2.7-2.5-4-3.8c-0.1-0.1,0.3-0.8,0.6-1
		c1.1-0.9,2.3-1.6,3.3-2.5c1.4-1.2,2.3-2.9,4.6-2.6c0.6,0.1,1.3-0.8,1.9-1.4c1.2-1.1,2.4-2.3,3.5-3.5c1.5,1.7,3.2,3.2,4.3,5.1
		c1.5,2.8,2.6,6,3.8,9c0.1,0.3,0.5,0.5,0.7,0.8c0.2-0.3,0.5-0.7,0.5-1c0-1.3,0.8-2.2,1.1-3.3c0.6-2,0.9-2.4,2.8-1.2
		c1.9,1.2,4,2.3,6.2,3.1c1.9,0.7,1.5,1.7,0.5,2.6c-1.5,1.3-2.5,3-4.6,3.8c-2.2,0.8-2.1,1.6-1,4.1c0.6,1.2,0.8,2.6,1.5,3.7
		c0.6,1.1,1.4,2,2.1,3c0.1,0.1,1.2-4.1,1-4.6c-0.2-0.5-0.8-1.4-0.6-1.5c3.5-3.4,3.7-9.4,9.3-11.1c1-0.3,1.6-1.8,3-0.6
		c1.4,1.2,1.7,2.6,0.9,4.3c-1,1.9-1.7,3.8-2.3,5.9C228,135.5,227.8,138.4,227.9,141.4z M243.3,141.7c-0.4-0.1-1,0.1-1.2-0.1
		c-2.4-3.7-7.7-1.7-10.3-5.2c-1.1-1.4-1.4-2,0-3.2c0.7-0.6,0.7-2.1,1.4-2.4c1-0.5,2.3-0.3,3.5-0.5c2.4-0.3,3.7,0.2,3.7,3.2
		c0,1.2,2.2,2.3,3.3,3.5c0.6,0.7,1.2,1.6,1.5,2.5C245.7,141,244.8,141.9,243.3,141.7z"/>
	<g>
		<path class="st3" d="M238.9,122c0.3,0.2,0.6,0.5,0.8,0.7c0.4,0.4,0.8,0.7,1.2,1.1c0,0,36.3-3,36.3-3.3
			C277.2,120.2,238.9,122,238.9,122z"/>
		<path class="st3" d="M151.8,95.7c0.5-0.2,1.1-0.2,1.7,0c0.5,0.2,1.1,0.3,1.8,0.5c0,0-15.6-13-15.8-12.8
			C139.3,83.6,151.8,95.7,151.8,95.7z"/>
		<path class="st3" d="M247.7,130.9c0,0,30,0.2,30.3-0.1c-0.3-0.3-31.7-1.9-31.7-1.9C246.8,129.5,247.2,130.2,247.7,130.9z"/>
		<path class="st3" d="M133,107.9c0.5-0.5,1.1-1,1.6-1.5c0,0-29.6-11.1-29.7-10.8C104.9,95.9,133,107.9,133,107.9z"/>
		<path class="st3" d="M144.6,101.6c0.6-0.4,1.2-0.7,1.7-1.1c-4.8-3-25.6-15.6-25.7-15.5C120.4,85.2,144.6,101.6,144.6,101.6z"/>
		<path class="st3" d="M122.6,116.7c0,0-8.7-0.9-8.7-0.7c0,0.2,5.5,1.3,6.7,1.6C120.8,117.5,121.5,117.1,122.6,116.7z"/>
		<path class="st3" d="M171.5,106c-0.7,0.8-1.4,1.6-2,2.5c0,0,0,0.1-0.1,0.1c0,0,0,0,0,0l0,0c0.4,0.4,0.8,0.8,1.1,1.3
			c0.4,0.5,1.3,0.9,1.2,1.3c0,1.7,1,1.6,2.2,2c1.8,0.7,3.4,2.2,4.7,3.6c1.4,1.6,2.5,2.1,4.8,1.4c1.9-0.6,4.1,0,4.7-2.8
			c0.1-0.4,0.8-1.1,1.1-1c4,0.5,5.9-2.2,7.5-5c0.9-1.6,1.7-2.5,3.6-2.5c2.1,0,3.6,1.1,5.1,2.2c0.2,0.2,0,0.9,0.2,1.1
			c2.2,2.2,4,5.5,6.7,6.4c3.8,1.2,7.7,2.9,11.9,2.8c0.1,0,0.1,0,0.2,0c8.2-1.6,59.1-11.7,59.5-12.1c-0.4-0.4-61.6,10.4-61.6,10.4
			c-0.2-0.6-0.4-1.1-0.6-1.7c0-0.1-0.1-0.1-0.1-0.2c-0.2-0.4-0.3-0.9-0.5-1.3c0,0,36.9-13.4,36.8-13.7c-0.1-0.3-37.7,11.8-37.7,11.8
			c-0.2-0.5-0.5-0.9-0.8-1.3c0-0.1-0.1-0.1-0.1-0.2c-0.2-0.4-0.5-0.9-0.7-1.3c0,0,26.8-15,26.7-15.2c-0.2-0.3-27.9,13.5-27.9,13.5
			c-0.2-0.3-0.5-0.6-0.8-0.9c-0.2-0.2-0.3-0.4-0.5-0.5c-0.3-0.4-0.6-0.7-0.9-1.1c0,0,49.1-40.7,48.9-40.8
			c-0.3-0.3-50.3,39.4-50.4,39.5c-0.7-0.6-1.4-1.2-2.1-1.8c-0.2-0.2-0.4-0.4-0.6-0.5c0,0,31.1-39.1,30.8-39.4
			c-0.1-0.2-22.3,25.9-32.4,38.1c0,0.1-0.1,0.1-0.2,0.2c-0.1-0.1-0.2-0.1-0.3-0.2c-0.9-0.6-1.8-1.1-2.8-1.5c0,0,21-50.4,20.3-50.7
			c-0.5-0.2-22.2,49.7-22.2,49.9c-0.3-0.1-0.5-0.2-0.8-0.3c-0.2-0.1-0.3-0.1-0.5-0.2c-0.3-0.1-0.6-0.2-0.8-0.2
			c-0.4-0.1-0.9-0.3-1.4-0.4c0-0.2,8.3-52.6,8.1-52.6c-0.3,0-9.9,51.6-10.1,52.2c-1.3-0.2-2.6-0.4-3.9-0.4c-0.1,0-0.2,0-0.3,0
			c0,0-2-36.7-2.8-36.6l0.8,36.5c-1.5,0-3,0.2-4.4,0.4c-0.1-0.3-8.8-30.5-9.2-30.4c-0.2,0,7.1,30,7.2,30.8c-1.5,0.4-2.9,0.8-4.2,1.4
			c-0.8-1.8-17.9-38.9-18.5-38.6c-0.5,0.2,15.8,37.5,16.7,39.4c-1.1,0.5-2.1,1.1-3.2,1.8c-0.5-0.7-29.8-44.1-30-44
			c-0.3,0.2,28.2,45.1,28.3,45.2c-0.9,0.7-1.8,1.5-2.7,2.3c-0.1-0.1-40.1-46.7-40.5-46.9C132.3,58.1,170.8,105.2,171.5,106
			C171.5,106,171.5,106,171.5,106z"/>
	</g>
</g>
</svg>
